<svg width="65" height="65" viewBox="0 0 65 65" fill="none" xmlns="http://www.w3.org/2000/svg">
<g clip-path="url(#clip0_6_66)">
<path d="M55.4227 8.57987C52.4137 5.56389 48.8393 3.17107 44.9043 1.53844C40.9692 -0.0941936 36.7508 -0.93457 32.4905 -0.93457C28.2302 -0.93457 24.0118 -0.0941936 20.0767 1.53844C16.1417 3.17107 12.5673 5.56389 9.55832 8.57987C-2.96434 21.1025 -3.08494 41.4023 9.19523 54.0748L9.43137 54.3147L9.45168 54.335L9.55324 54.4379L9.79064 54.6753C12.4855 57.32 15.6219 59.4734 19.0582 61.0382L19.387 61.1854C19.6206 61.2883 19.8568 61.3898 20.0929 61.4876L20.4737 61.6412L20.8546 61.791C21.1263 61.896 21.4001 61.9967 21.676 62.0932H21.6836C21.9765 62.1973 22.2727 62.2963 22.5723 62.3902L23.0331 62.5337C23.4622 62.6649 23.8947 62.7863 24.3306 62.898L24.7673 63.0072C25.0009 63.0656 25.2345 63.1189 25.4694 63.1697C25.7042 63.2205 25.9404 63.2713 26.1765 63.317C26.4727 63.3754 26.7689 63.4291 27.0652 63.4782C27.2137 63.5036 27.3622 63.5277 27.512 63.5506C27.6618 63.5734 27.8104 63.595 27.9602 63.6153L28.3207 63.6636C28.435 63.6788 28.5492 63.6928 28.6648 63.7055H28.6965L29.0494 63.7448L29.4049 63.7804L29.768 63.8121C30.0105 63.8324 30.2529 63.8489 30.4967 63.8641L30.9461 63.8883H30.9893C31.1353 63.8946 31.2825 63.901 31.4298 63.9048H31.4514H31.5517C31.6393 63.9048 31.7256 63.9048 31.8132 63.9111H31.8754C32.0785 63.9111 32.2829 63.9175 32.4873 63.9175H32.5C33.029 63.9175 33.5563 63.9044 34.0819 63.8781C34.3281 63.8667 34.5732 63.8514 34.8182 63.8349H34.888C35.015 63.8248 35.1419 63.8159 35.2689 63.8045L35.6611 63.7689C35.9227 63.7435 36.1838 63.7152 36.4445 63.6839C36.7047 63.6521 36.9637 63.6166 37.2227 63.5798C37.4817 63.543 37.7406 63.5011 37.9971 63.4528C38.124 63.4312 38.251 63.4084 38.3779 63.3843C38.5049 63.3601 38.6319 63.336 38.7588 63.3119L39.1397 63.2345L39.551 63.1456L39.8671 63.0732C39.8976 63.0669 39.9293 63.0605 39.9598 63.0516H39.9737C40.0766 63.0288 40.1794 63.0034 40.281 62.978C40.4079 62.9475 40.5349 62.9158 40.6618 62.8828L41.0427 62.7825C41.2966 62.714 41.5458 62.6429 41.7904 62.5692C41.9174 62.5324 42.0443 62.4943 42.1624 62.455C42.2805 62.4156 42.41 62.3775 42.5331 62.3369C42.6563 62.2963 42.7794 62.2569 42.9026 62.2099C43.1472 62.1253 43.3913 62.0407 43.6351 61.956L43.9994 61.8202C44.1264 61.7745 44.2406 61.7275 44.3612 61.6806C44.6025 61.5853 44.8411 61.4876 45.0811 61.3873C45.2601 61.3124 45.4378 61.2349 45.6155 61.1562C45.7933 61.0775 45.9685 60.9975 46.1449 60.915L46.4636 60.7652C46.5639 60.7182 46.6629 60.67 46.7619 60.6205C46.9524 60.5265 47.1424 60.4309 47.3319 60.3336C50.1965 58.8489 52.8247 56.9472 55.1307 54.6905L55.1903 54.6423C55.2767 54.5712 55.3503 54.4975 55.4151 54.4328C55.5255 54.3223 55.636 54.2106 55.7439 54.0989L55.7591 54.0849L55.801 54.0405C61.7227 47.9302 65.0023 39.7351 64.931 31.2264C64.8598 22.7177 61.4434 14.5787 55.4201 8.56844L55.4227 8.57987ZM21.5148 12.8442C24.0563 10.3024 27.4006 8.72049 30.9778 8.36802C34.555 8.01555 38.1437 8.91433 41.1325 10.9112C44.1213 12.9081 46.3252 15.8796 47.3687 19.3193C48.4122 22.7589 48.2308 26.4541 46.8553 29.775C45.4798 33.0959 42.9953 35.8371 39.8253 37.5316C36.6553 39.226 32.9957 39.7689 29.4703 39.0677C25.9449 38.3664 22.7717 36.4645 20.4914 33.6859C18.211 30.9073 16.9647 27.424 16.9648 23.8295C16.9589 21.7885 17.3581 19.7666 18.1391 17.881C18.9201 15.9953 20.0675 14.2834 21.5148 12.8442ZM11.7698 53.9212C11.8587 53.8171 11.9488 53.713 12.039 53.6101L12.0606 53.5898C12.0606 53.5898 12.0606 53.5898 12.0669 53.5835C12.0987 53.5467 12.1317 53.5086 12.1647 53.473L12.364 53.2521C12.4313 53.1785 12.4986 53.1049 12.5671 53.0325L12.6001 52.997L12.6103 52.9855C12.6776 52.9119 12.7448 52.8408 12.8134 52.7697C12.9162 52.6618 13.0203 52.5539 13.1257 52.4485C13.1904 52.3825 13.2527 52.3216 13.3225 52.253C13.3923 52.1845 13.4405 52.1337 13.5002 52.0778L13.5738 52.0055C13.6386 51.9432 13.7008 51.8785 13.7681 51.8214L13.7947 51.796L13.8036 51.7871L13.843 51.7503C13.9141 51.6817 13.9852 51.6157 14.0575 51.551C14.102 51.5091 14.1464 51.4672 14.1921 51.424L14.22 51.3999C14.2873 51.3364 14.3571 51.2729 14.4257 51.2145L14.5819 51.0774C14.6529 51.014 14.7253 50.9505 14.7977 50.8921L14.9805 50.7359C15.0427 50.6826 15.1074 50.6293 15.1709 50.5772C15.2344 50.5252 15.3131 50.4604 15.3855 50.4033C15.4388 50.3589 15.4921 50.3157 15.5467 50.2764L15.5695 50.2586L15.6013 50.2332C15.6622 50.1837 15.7282 50.1354 15.7866 50.0872L15.8006 50.077C15.8497 50.0373 15.8992 49.9992 15.9491 49.9628L15.9745 49.9425L16.1205 49.832H16.1281L16.1434 49.8206C16.2348 49.7508 16.3262 49.6822 16.4189 49.6162C16.443 49.5972 16.4684 49.5781 16.4938 49.5616C16.589 49.4905 16.6842 49.422 16.7807 49.3547L16.9457 49.2391L16.9673 49.2252L17.178 49.0792L17.2022 49.0614L17.2326 49.0411L17.2936 49.0017C17.3989 48.9294 17.5043 48.8596 17.611 48.7897C17.7176 48.7199 17.8153 48.6564 17.9195 48.5917C17.9893 48.5473 18.0591 48.5028 18.1302 48.4647L18.1683 48.4406L18.4806 48.2489C18.6075 48.1702 18.7446 48.0915 18.8779 48.0153L18.9237 47.9887H18.9313C19.0062 47.9442 19.0823 47.9023 19.1585 47.8617L19.208 47.835L19.2525 47.8097C19.3109 47.7766 19.3693 47.7436 19.4289 47.7119C19.5178 47.6624 19.6067 47.6141 19.6968 47.5672L19.8237 47.5024L19.8415 47.4935L19.905 47.4605L19.9456 47.4389C20.0421 47.3869 20.1411 47.3387 20.2376 47.2879L20.5817 47.1178L20.7581 47.0314H20.7696L20.8013 47.0162L20.847 46.9946C20.9486 46.9451 21.0514 46.8981 21.1542 46.8512L21.2228 46.8194C21.3497 46.7598 21.4843 46.7014 21.6163 46.6442L21.7014 46.6061L22.0162 46.4716H22.0264L22.3882 46.3243C22.4126 46.3128 22.4376 46.3027 22.4631 46.2938H22.4707L22.6281 46.2329L22.7932 46.1694L22.9379 46.1136C23.0649 46.0679 23.1842 46.0222 23.3073 45.979C23.3353 45.9671 23.3632 45.957 23.3911 45.9485C23.499 45.9092 23.6082 45.8711 23.7174 45.8355C23.7809 45.8127 23.8444 45.7911 23.9091 45.7708C24.0081 45.7365 24.1084 45.7035 24.2087 45.673L24.3357 45.6324L24.3674 45.6222L24.389 45.6159C24.5159 45.5791 24.6302 45.541 24.7521 45.5055L32.2931 55.7747L40.2835 45.5156L40.4397 45.5626C40.5438 45.593 40.6466 45.6261 40.7494 45.6578L40.8865 45.701L41.1404 45.7835L41.2166 45.8089L41.5188 45.913H41.5302L41.7257 45.9815L41.8831 46.0399C41.986 46.0767 42.0875 46.1148 42.1903 46.1542C42.3287 46.2062 42.4658 46.2596 42.6029 46.3141L42.6639 46.3383L42.7261 46.3637L42.853 46.4144L42.8899 46.4297L42.9102 46.4386L42.9432 46.4513C43.013 46.4779 43.0841 46.5084 43.1527 46.5389C43.2606 46.5833 43.3647 46.6303 43.4713 46.6772L43.503 46.6912L43.5576 46.7153L43.6528 46.7572L43.7468 46.8004C43.7633 46.808 43.7811 46.8143 43.7976 46.8232L43.9969 46.9146L44.0362 46.9337C44.0705 46.9489 44.1048 46.9641 44.1391 46.9819H44.1454C44.2546 47.034 44.3663 47.086 44.4742 47.1406L44.591 47.199L44.6202 47.213C44.7104 47.2574 44.8005 47.3018 44.8894 47.3488L44.9376 47.3742H44.9465C44.9631 47.3817 44.9792 47.3901 44.9947 47.3996L45.043 47.425L45.0836 47.4453L45.3769 47.6002L45.4822 47.6573C45.5973 47.7191 45.7116 47.7826 45.825 47.8477C45.8437 47.8569 45.862 47.8671 45.8796 47.8782C46.0066 47.9506 46.1335 48.0242 46.2605 48.0978C46.2846 48.1105 46.3074 48.1258 46.3316 48.1397L46.6274 48.3175C46.6985 48.3606 46.7695 48.4038 46.8406 48.4444L46.8673 48.4609L47.0374 48.5676L47.0552 48.579H47.0666L47.1466 48.6298L47.2012 48.6653C47.3078 48.7326 47.4157 48.8024 47.5211 48.8735C47.5516 48.893 47.5821 48.9133 47.6125 48.9345C47.6972 48.9912 47.7818 49.0496 47.8664 49.1097L47.8791 49.1185C47.9451 49.1634 48.0112 49.2091 48.0772 49.2556C48.133 49.2937 48.1902 49.3331 48.246 49.375C48.3019 49.4169 48.3793 49.4689 48.4453 49.5172C48.5113 49.5654 48.6129 49.6441 48.6992 49.7L48.7322 49.7254L48.8833 49.8384C48.9976 49.9234 49.1118 50.011 49.2248 50.0999C49.3162 50.1697 49.4064 50.2408 49.4965 50.3132L49.645 50.4325L49.9053 50.6471C49.9408 50.675 49.9764 50.7042 50.0107 50.7347C50.0868 50.7981 50.163 50.8616 50.2379 50.9289L50.2582 50.9467H50.2646L50.2735 50.9543L50.3611 51.0292C50.4106 51.0711 50.4588 51.1155 50.5083 51.1561L50.5489 51.193C50.6365 51.2679 50.7241 51.3466 50.8105 51.4253C51.0204 51.614 51.2264 51.8074 51.4287 52.0055C51.4964 52.0706 51.5637 52.1366 51.6306 52.2035C51.7131 52.2835 51.7944 52.3647 51.8756 52.4473C52.1058 52.6792 52.3314 52.9161 52.5523 53.1582C52.5662 53.1734 52.5802 53.1874 52.5929 53.2026C52.6627 53.2788 52.7325 53.355 52.8011 53.4324L52.8087 53.44L52.8811 53.5225C52.9903 53.6495 53.0969 53.7688 53.2035 53.8932C41.6254 64.6462 23.3848 64.6563 11.7698 53.9212Z" fill="#1B84E0"/>
<path d="M40.2162 46.4522L40.2886 46.4737L32.2981 56.7328L24.7559 46.4649C24.8155 46.4458 24.8765 46.428 24.9374 46.4115L25.1202 46.3595C25.2599 46.3201 25.3982 46.282 25.5379 46.2452L25.7372 46.1932L25.7639 46.1868L25.9835 46.131L26.2031 46.0777L26.2679 46.0624L26.4621 46.0167L26.6551 45.9735L26.7427 45.9532H26.7693L26.9483 45.9152L27.1286 45.8783C27.1921 45.8639 27.2556 45.8512 27.319 45.8402C27.4117 45.8212 27.5057 45.8034 27.5983 45.7869L27.7545 45.7577L28.0566 45.7031L28.2826 45.6663L28.5086 45.6308L28.6736 45.6067L28.8399 45.5838H28.8704H28.8971H28.9288L29.1586 45.5546H29.1764H29.2068H29.2386C29.33 45.5432 29.4201 45.5317 29.5115 45.5229C29.6029 45.514 29.6994 45.5013 29.7934 45.4924L29.9609 45.4492C30.0727 45.4378 30.1844 45.4289 30.2961 45.4188L30.6427 45.3934L30.9182 45.3756H30.955H31.0134L31.3346 45.3591H31.4107H31.4298L31.7104 45.3489H31.8665H32.0696H32.3692H32.5102C32.6549 45.3489 32.8009 45.3489 32.9456 45.3489H33.0637C33.1145 45.3489 33.164 45.3489 33.2147 45.3489C33.3214 45.3489 33.428 45.3489 33.5347 45.3591H33.5766C33.6705 45.3591 33.7657 45.3654 33.8597 45.3705H33.8686L34.144 45.387L34.2786 45.3946C34.3611 45.3946 34.4424 45.4048 34.5249 45.4124H34.549C34.629 45.4124 34.7103 45.4238 34.7902 45.4315H34.8017C34.9197 45.4403 35.0365 45.4518 35.1533 45.4632H35.2016L35.3285 45.4759L35.505 45.4949H35.5545L35.8351 45.5267H35.8643L35.915 45.533L36.0318 45.5483L36.3111 45.5863L36.5028 45.6143L36.5511 45.6219L36.7783 45.6574L37.1592 45.7209C37.2861 45.7425 37.4017 45.7641 37.5223 45.7882C37.6797 45.8187 37.8384 45.8491 37.9958 45.8821C38.1532 45.9152 38.3094 45.9494 38.4668 45.985L38.8794 46.0827L39.0165 46.117L39.0686 46.1297L39.2907 46.1881C39.471 46.2351 39.6513 46.2846 39.8303 46.3354C39.9648 46.3798 40.0905 46.4141 40.2162 46.4522Z" fill="white"/>
<path d="M55.8073 55.052L55.2729 54.3816C51.4569 49.6094 46.238 46.1566 40.3533 44.511C37.8034 43.7844 35.1642 43.4186 32.5127 43.4243H32.42C29.9338 43.432 27.4589 43.7605 25.0568 44.4019C24.5566 44.5339 24.0606 44.679 23.5689 44.8373C18.1191 46.6036 13.3076 49.9306 9.73097 54.4058L9.19904 55.0735L9.43898 55.3084L9.45929 55.3287L9.80841 55.669C12.5003 58.3109 15.6316 60.464 19.062 62.0318L19.3908 62.1791C19.6244 62.2819 19.8606 62.3835 20.0967 62.4813L20.4776 62.6349L20.8584 62.7847C21.1314 62.8888 21.4043 62.9903 21.6798 63.0868H21.6874C21.9819 63.1897 22.2765 63.2887 22.5761 63.3839L23.0369 63.5273C23.466 63.6568 23.8985 63.7783 24.3344 63.8917L24.7711 64.0009C25.0047 64.0567 25.2387 64.1109 25.4732 64.1634C25.7076 64.2159 25.9433 64.2649 26.1803 64.3107C26.4765 64.3691 26.7727 64.4228 27.069 64.4719C27.2175 64.4973 27.366 64.5214 27.5158 64.5442C27.6656 64.5671 27.8142 64.5887 27.964 64.609L28.3245 64.6572C28.4388 64.6725 28.553 64.6864 28.6686 64.6991H28.7003L29.0532 64.7385L29.4087 64.774L29.7718 64.8058C30.0143 64.8261 30.2568 64.8426 30.5005 64.8578L30.9499 64.8819H30.9931C31.1391 64.8883 31.2863 64.8946 31.4336 64.8984H31.4552H31.5555C31.6431 64.8984 31.7294 64.8984 31.817 64.9048H31.8792C32.0823 64.9048 32.2867 64.9111 32.4911 64.9111H32.5038C33.0328 64.9111 33.5601 64.898 34.0857 64.8718C34.3319 64.8616 34.577 64.8464 34.822 64.8286H34.8918C35.0188 64.8185 35.1457 64.8096 35.2727 64.7982L35.665 64.7626C35.9265 64.7385 36.188 64.7093 36.4483 64.6775C36.7085 64.6458 36.9675 64.6103 37.2265 64.5734C37.4855 64.5366 37.7444 64.4947 38.0009 64.4465C38.1278 64.4249 38.2548 64.4021 38.3818 64.3779C38.5087 64.3538 38.6357 64.3297 38.7626 64.3056L39.1435 64.2281L39.5548 64.1393L39.8709 64.0669C39.9014 64.0606 39.9331 64.0542 39.9636 64.0453H39.9776C40.0804 64.0225 40.1832 63.9971 40.2848 63.9717C40.4117 63.9412 40.5387 63.9095 40.6656 63.8765L41.0465 63.7762C41.3004 63.7102 41.5497 63.6391 41.7943 63.5629C41.9212 63.5261 42.0482 63.488 42.1662 63.4486C42.2843 63.4093 42.4138 63.3712 42.5369 63.3306C42.6601 63.2899 42.7832 63.2506 42.9064 63.2036C43.1514 63.1224 43.3964 63.036 43.6389 62.9497L44.0032 62.8139C44.1302 62.7682 44.2444 62.7212 44.3651 62.6742C44.6063 62.579 44.8449 62.4813 45.0849 62.381C45.2639 62.3061 45.4416 62.2286 45.6194 62.1499C45.7971 62.0712 45.9723 61.9912 46.1487 61.9087L46.4674 61.7589C46.5677 61.7119 46.6667 61.6637 46.7657 61.6142C46.9562 61.5202 47.1462 61.4246 47.3358 61.3273C50.2259 59.8351 52.875 57.9165 55.1942 55.6359L55.7477 55.0926L55.7629 55.0786L55.8061 55.0355L55.8073 55.052ZM11.7698 54.925C11.8587 54.8209 11.9488 54.7168 12.039 54.614L12.0606 54.5899C12.0606 54.5899 12.0606 54.5899 12.0669 54.5835C12.0986 54.5467 12.1317 54.5086 12.1647 54.4731L12.364 54.2522C12.4313 54.1785 12.4985 54.1049 12.5671 54.0325L12.6001 53.997L12.6103 53.9856C12.6776 53.9119 12.7448 53.8408 12.8134 53.7697C12.9162 53.6618 13.0203 53.5539 13.1257 53.4485C13.1904 53.3825 13.2526 53.3216 13.3225 53.253C13.3923 53.1845 13.4405 53.1337 13.5002 53.0778L13.5738 53.0055C13.6386 52.9433 13.7008 52.8785 13.7681 52.8214L13.7947 52.796L13.8036 52.7871L13.843 52.7503C13.9141 52.6817 13.9852 52.6157 14.0575 52.551C14.102 52.5091 14.1464 52.4672 14.1921 52.424L14.22 52.3999C14.2873 52.3364 14.3571 52.273 14.4257 52.2146L14.5818 52.0774C14.6529 52.014 14.7253 51.9505 14.7977 51.8921L14.9805 51.7359C15.0427 51.6826 15.1074 51.6293 15.1709 51.5773C15.2344 51.5252 15.3131 51.4605 15.3855 51.4033C15.4388 51.3589 15.4921 51.3157 15.5467 51.2764L15.5695 51.2586L15.6013 51.2332C15.6622 51.1837 15.7282 51.1355 15.7866 51.0872L15.8006 51.0771C15.8497 51.0373 15.8992 50.9992 15.9491 50.9628L15.9745 50.9425L16.1205 50.832H16.1281L16.1434 50.8206C16.2348 50.7508 16.3262 50.6822 16.4189 50.6162C16.443 50.5972 16.4684 50.5781 16.4938 50.5616C16.589 50.4905 16.6842 50.422 16.7807 50.3547L16.9457 50.2392L16.9673 50.2252L17.178 50.0792L17.2022 50.0614L17.2326 50.0411L17.2936 50.0018C17.3989 49.9294 17.5043 49.8596 17.6109 49.7898C17.7176 49.7199 17.8153 49.6565 17.9194 49.5917C17.9893 49.5473 18.0591 49.5028 18.1302 49.4648L18.1683 49.4406L18.4806 49.2489C18.6075 49.1702 18.7446 49.0915 18.8779 49.0153L18.9236 48.9887H18.9313C19.0062 48.9442 19.0823 48.9024 19.1585 48.8617L19.208 48.8351L19.2525 48.8097C19.3109 48.7767 19.3692 48.7437 19.4289 48.7119C19.5178 48.6624 19.6067 48.6142 19.6968 48.5672L19.8237 48.5024L19.8415 48.4936L19.905 48.4606L19.9456 48.439C20.0421 48.3869 20.1411 48.3387 20.2376 48.2879L20.5817 48.1178L20.7581 48.0315H20.7695L20.8013 48.0162L20.847 47.9946C20.9485 47.9451 21.0514 47.8982 21.1542 47.8512L21.2228 47.8194C21.3497 47.7598 21.4843 47.7014 21.6163 47.6442L21.7014 47.6062L22.0162 47.4716H22.0264L22.3882 47.3243C22.4126 47.3129 22.4376 47.3027 22.4631 47.2939H22.4707L22.6281 47.2329L22.7932 47.1694L22.9379 47.1136C23.0649 47.0679 23.1842 47.0222 23.3073 46.979C23.3353 46.9672 23.3632 46.957 23.3911 46.9485C23.499 46.9092 23.6082 46.8711 23.7174 46.8356C23.7809 46.8127 23.8443 46.7911 23.9091 46.7708C24.0081 46.7365 24.1084 46.7035 24.2087 46.6731L24.3357 46.6324L24.3674 46.6223L24.389 46.6159C24.5159 46.5791 24.6302 46.541 24.7521 46.5055C24.8117 46.4864 24.8727 46.4687 24.9336 46.4522L25.1164 46.4001C25.2561 46.3607 25.3944 46.3227 25.5341 46.2858L25.7334 46.2338L25.7601 46.2274L25.9797 46.1716L26.1993 46.1183L26.2641 46.103L26.4583 46.0573L26.6513 46.0142L26.7389 45.9939H26.7655L26.9445 45.9558L27.1248 45.919C27.1883 45.9046 27.2518 45.8919 27.3152 45.8809C27.4079 45.8618 27.5019 45.8441 27.5945 45.8275L27.7507 45.7983L28.0567 45.7031L28.2826 45.6663L28.5086 45.6308L28.6736 45.6066L28.84 45.5838H28.8704H28.8971H28.9288L29.1586 45.5546H29.1764H29.2068H29.2386C29.33 45.5432 29.4201 45.5317 29.5115 45.5229C29.6029 45.514 29.6994 45.5013 29.7934 45.4924L29.961 45.4492C30.0727 45.4378 30.1844 45.4289 30.2961 45.4188L30.6427 45.3934L30.9182 45.3756H30.955H31.0134L31.3346 45.3591H31.4108H31.4298L31.7104 45.3489H31.8665H32.0696H32.3693H32.5102C32.6549 45.3489 32.8009 45.3489 32.9456 45.3489H33.0637C33.1145 45.3489 33.164 45.3489 33.2148 45.3489C33.3214 45.3489 33.428 45.3489 33.5347 45.3591H33.5766C33.6718 45.3591 33.7657 45.3667 33.8597 45.3705H33.8686L34.1441 45.387L34.2786 45.3946C34.3611 45.3946 34.4424 45.4048 34.5249 45.4124H34.549L34.7902 45.4315H34.8017C34.9197 45.4403 35.0365 45.4518 35.1533 45.4632H35.2016L35.3285 45.4759L35.505 45.4949H35.5545L35.8351 45.5267H35.8643L35.9151 45.533L36.0319 45.5482L36.3111 45.5863L36.5028 45.6143L36.5511 45.6219L36.7783 45.6574L37.1592 45.7209C37.2798 45.7425 37.4017 45.7641 37.5223 45.7882C37.6797 45.8187 37.8384 45.8491 37.9958 45.8821C38.1532 45.9151 38.3094 45.9494 38.4668 45.985L38.8794 46.0827L39.0165 46.117L39.0686 46.1297L39.2907 46.1881C39.471 46.2351 39.6513 46.2846 39.8303 46.3354C39.9572 46.3709 40.0842 46.4052 40.2111 46.4433L40.2835 46.4649L40.4397 46.5118C40.5438 46.5423 40.6466 46.5753 40.7494 46.607L40.8865 46.6502L41.1404 46.7327L41.2166 46.7581L41.5188 46.8622H41.5302L41.7257 46.9308L41.8831 46.9892C41.986 47.026 42.0875 47.0641 42.1903 47.1034C42.3287 47.1555 42.4658 47.2088 42.6029 47.2634L42.6639 47.2875L42.7261 47.3129L42.853 47.3637L42.8899 47.3789L42.9102 47.3878L42.9432 47.4005C43.013 47.4272 43.0841 47.4576 43.1526 47.4881C43.2606 47.5325 43.3647 47.5795 43.4713 47.6265L43.503 47.6404L43.5576 47.6646L43.6528 47.7065L43.7468 47.7496C43.7633 47.7572 43.7811 47.7636 43.7976 47.7725L43.9969 47.8639L44.0362 47.8829C44.0705 47.8982 44.1048 47.9134 44.1391 47.9312H44.1454C44.2546 47.9832 44.3663 48.0353 44.4742 48.0898L44.591 48.1483L44.6202 48.1622C44.7104 48.2066 44.8005 48.2511 44.8894 48.2981L44.9376 48.3234H44.9465C44.9631 48.3309 44.9792 48.3394 44.9947 48.3488L45.043 48.3742L45.0836 48.3945C45.1814 48.4441 45.2804 48.4974 45.3769 48.5494L45.4822 48.6065C45.5973 48.6683 45.7116 48.7318 45.825 48.797C45.8437 48.8062 45.862 48.8163 45.8796 48.8274C46.0066 48.8985 46.1335 48.9722 46.2605 49.0471C46.2846 49.0598 46.3074 49.075 46.3316 49.089C46.4306 49.1474 46.5296 49.2058 46.6274 49.2667C46.6985 49.3099 46.7695 49.353 46.8406 49.3937L46.8673 49.4102L47.0374 49.5168L47.0552 49.5282H47.0666L47.1466 49.579L47.2012 49.6146C47.3078 49.6818 47.4157 49.7517 47.5211 49.8228C47.5516 49.8422 47.582 49.8625 47.6125 49.8837C47.7001 49.9408 47.7852 49.9992 47.8664 50.0589L47.8791 50.0678C47.9451 50.1126 48.0111 50.1583 48.0772 50.2049C48.133 50.243 48.1902 50.2823 48.246 50.3242C48.3019 50.3661 48.3793 50.4182 48.4453 50.4664C48.5113 50.5147 48.6129 50.5934 48.6992 50.6492L48.7322 50.6746L48.8833 50.7876C48.9976 50.8727 49.1118 50.9603 49.2248 51.0491C49.3162 51.119 49.4064 51.19 49.4965 51.2624L49.645 51.3817L49.9053 51.5963C49.9408 51.6242 49.9764 51.6534 50.0107 51.6839C50.0881 51.7474 50.163 51.8108 50.2379 51.8781L50.2582 51.8959H50.2646L50.2734 51.9035L50.361 51.9784C50.4106 52.0203 50.4588 52.0648 50.5083 52.1054L50.5489 52.1422C50.6365 52.2171 50.7241 52.2958 50.8105 52.3745C51.0204 52.5633 51.2264 52.7566 51.4287 52.9547C51.4964 53.0199 51.5637 53.0859 51.6306 53.1527C51.7131 53.2327 51.7943 53.314 51.8756 53.3965C52.1058 53.6284 52.3314 53.8654 52.5523 54.1074C52.5662 54.1227 52.5802 54.1366 52.5929 54.1519C52.6627 54.228 52.7325 54.3042 52.8011 54.3816L52.8087 54.3893L52.8811 54.4718C52.9902 54.5987 53.0969 54.7181 53.2035 54.8425C41.6254 65.6462 23.3848 65.6564 11.7698 54.9212V54.925Z" fill="#1B84E0"/>
<path d="M39.8989 45.4264L32.321 55.1548L25.1012 45.3223C27.456 44.6944 29.8826 44.376 32.3198 44.3752C34.8829 44.3689 37.4342 44.7227 39.8989 45.4264Z" fill="#1B84E0"/>
<path d="M40.1616 44.511C37.6429 43.7929 35.0366 43.4276 32.4175 43.4256H32.3185C29.7982 43.4263 27.2887 43.7558 24.8536 44.4057L23.5067 44.765L23.5612 44.8399L24.7559 46.4649L32.2969 56.7341L40.2873 46.475L41.5137 44.9008L40.1616 44.511ZM26.7186 45.9164C28.5605 45.5262 30.4382 45.3292 32.321 45.3286H32.4289C34.3891 45.3323 36.3429 45.5524 38.2548 45.985L32.3426 53.5742L26.7452 45.957L26.7186 45.9164Z" fill="#1B84E0"/>
</g>
<defs>
<clipPath id="clip0_6_66">
<rect width="65" height="65" fill="white"/>
</clipPath>
</defs>
</svg>
